<svg width="181" height="89" viewBox="0 0 181 89" fill="none" xmlns="http://www.w3.org/2000/svg">
<path d="M1 88L32.637 62.2475M32.637 62.2475L39.363 74.8713V85.9802L56.8007 65.2772L65.2705 78.6584L72.2456 63.2574L75.484 37M32.637 62.2475L45.8399 68.0545L56.8007 57.198H65.2705L75.484 37M75.484 37L99.3986 63.2574M99.3986 63.2574L86.4448 74.8713M99.3986 63.2574L110.11 54.9257M110.11 54.9257L101.142 73.6089L79.4698 85.9802M110.11 54.9257L141 88" stroke="white"/>
<path d="M172 12.621C172.382 10.9676 171.962 9.25513 171.288 7.69131C170.634 6.17372 169.712 4.73167 168.953 3.54374C168.928 3.50509 168.904 3.46671 168.879 3.4286C168.488 2.81634 168.15 2.28291 167.906 1.83167C167.651 1.35926 167.549 1.06148 167.545 0.899916C167.544 0.888003 167.544 0.87875 167.545 0.871755C167.56 0.865159 167.585 0.855936 167.626 0.847268C167.857 0.79892 168.316 0.821271 169.122 1.00769C175.387 2.45625 179.316 8.3033 177.997 14.0077C176.679 19.7121 170.582 23.2412 164.317 21.7927C163.51 21.6063 163.089 21.4252 162.902 21.2803C162.869 21.2543 162.85 21.2349 162.84 21.2225C162.842 21.216 162.846 21.2076 162.852 21.1971C162.927 21.054 163.15 20.8313 163.586 20.5187C164.003 20.2201 164.541 19.8892 165.161 19.5109C165.2 19.4873 165.238 19.4636 165.278 19.4397C166.482 18.7057 167.943 17.8147 169.197 16.7381C170.488 15.6287 171.617 14.2744 172 12.621ZM167.548 0.85358C167.548 0.85364 167.548 0.854371 167.547 0.855653L167.548 0.85358ZM167.53 0.879982C167.529 0.880654 167.528 0.880956 167.528 0.880933L167.53 0.879982ZM162.829 21.207C162.829 21.207 162.829 21.2075 162.83 21.2084L162.829 21.207ZM162.835 21.2379C162.834 21.2393 162.834 21.24 162.834 21.2401L162.835 21.2379Z" stroke="white"/>
<path d="M11.8224 23.8804L10.0039 28H6.73789L14.7544 9.85155H18.0204L25.9997 28H22.7338L20.9152 23.8804H11.8224ZM19.6905 21.0227L16.3874 13.5629L13.0843 21.0227H19.6905ZM46.1932 12.6351V28H43.1128V12.6351H37.62V9.85155H51.686V12.6351H46.1932ZM65.8421 28V9.85155H68.9225V25.1052H77.1988V28H65.8421ZM93.8982 23.8804L92.0797 28H88.8137L96.8302 9.85155H100.096L108.076 28H104.81L102.991 23.8804H93.8982ZM101.766 21.0227L98.4632 13.5629L95.1601 21.0227H101.766ZM123.852 14.4165C123.852 15.1835 124.137 15.7402 124.706 16.0866C125.275 16.5072 126.488 16.9402 128.343 17.3856C130.298 17.8557 131.721 18.499 132.611 19.3155C133.527 20.132 133.984 21.3072 133.984 22.8412C133.984 24.4495 133.378 25.7485 132.166 26.7381C130.978 27.7278 129.42 28.2227 127.49 28.2227C124.694 28.2227 122.17 27.233 119.918 25.2536L121.848 22.9526C123.729 24.5608 125.634 25.3649 127.564 25.3649C128.529 25.3649 129.308 25.1546 129.902 24.734C130.496 24.2887 130.793 23.7196 130.793 23.0268C130.793 22.334 130.521 21.7897 129.976 21.3938C129.457 20.9979 128.516 20.6392 127.156 20.3175C124.805 19.7732 123.172 19.1299 122.257 18.3876C121.193 17.5711 120.661 16.3216 120.661 14.6392C120.661 13.0062 121.255 11.732 122.442 10.8165C123.63 9.87629 125.151 9.40618 127.007 9.40618C129.506 9.40618 131.646 10.1361 133.428 11.5959L131.795 13.8969C131.25 13.4021 130.521 13.0062 129.605 12.7093C128.69 12.3876 127.787 12.2268 126.896 12.2268C125.98 12.2268 125.238 12.4247 124.669 12.8206C124.125 13.1918 123.852 13.7237 123.852 14.4165Z" fill="#DBDAE2"/>
</svg>
